<svg xmlns="http://www.w3.org/2000/svg" viewBox="0 0 25.6 25.6"><defs><style>.cls-1{isolation:isolate;}.cls-2{fill:#f38181;}</style></defs><title>instagram</title><g id="instagram" class="cls-1"><g id="instagram-2" data-name="instagram"><path class="cls-2" d="M26.22,3.72H7a3.2,3.2,0,0,0-3.2,3.2v19.2A3.2,3.2,0,0,0,7,29.32h19.2a3.21,3.21,0,0,0,3.2-3.2V6.92A3.2,3.2,0,0,0,26.22,3.72ZM11.69,16a.68.68,0,0,1,0-.14c0-.13,0-.25.06-.37s0-.11,0-.16a3.37,3.37,0,0,1,.1-.34.75.75,0,0,1,.05-.16c0-.11.08-.21.13-.32l0-.05h0a4.95,4.95,0,0,1,9,0h0s0,0,0,.05.09.21.13.32l.06.16.09.34a.75.75,0,0,1,0,.16,2.2,2.2,0,0,1,.06.37l0,.14a4.89,4.89,0,0,1,0,.54,5,5,0,1,1-9.92,0A4.89,4.89,0,0,1,11.69,16Zm14.85,9.18a1.29,1.29,0,0,1-1.28,1.28H8A1.28,1.28,0,0,1,6.7,25.16V14.44H9.06a7.52,7.52,0,0,0-.28,2.08,7.84,7.84,0,1,0,15.4-2.08h2.36Zm0-14.72a1.29,1.29,0,0,1-1.28,1.28H22.7a1.28,1.28,0,0,1-1.28-1.28V7.88A1.28,1.28,0,0,1,22.7,6.6h2.56a1.28,1.28,0,0,1,1.28,1.28Z" transform="translate(-3.82 -3.72)"/></g></g></svg>