<svg xmlns="http://www.w3.org/2000/svg" viewBox="0 0 19.59 25.66"><defs><style>.cls-1{isolation:isolate;}.cls-2{fill:#f38181;}</style></defs><title>pinterest</title><g id="pinterest" class="cls-1"><g id="pinterest-2" data-name="pinterest"><path class="cls-2" d="M25.61,10a8.21,8.21,0,0,0-1.83-3.31,9,9,0,0,0-3-2.15,9.63,9.63,0,0,0-4.33-.81c-.57,0-1.1.06-1.6.13A10.51,10.51,0,0,0,11,5.2a9.23,9.23,0,0,0-4.4,6.14,9.28,9.28,0,0,0,0,3.24A5.17,5.17,0,0,0,9,18.32a1.72,1.72,0,0,0,.64.24c.5,0,.51-.6.62-1s.31-.84.12-1.17S10,16,9.9,15.77a4.37,4.37,0,0,1-.68-2.49,7.1,7.1,0,0,1,.84-3.41A6.65,6.65,0,0,1,15,6.33a8.25,8.25,0,0,1,3.74.24,5.24,5.24,0,0,1,2.52,1.71,5.54,5.54,0,0,1,1.12,3.11,11.11,11.11,0,0,1-.07,2,9.26,9.26,0,0,1-1.67,4.68A3.56,3.56,0,0,1,18,19.66a2.45,2.45,0,0,1-1.63-.45,2.14,2.14,0,0,1-.85-1.28,3.81,3.81,0,0,1,.19-1.81c.32-1.18.67-2.09.94-3.31a4.42,4.42,0,0,0,.08-1.89,1.88,1.88,0,0,0-.87-1.25,2.16,2.16,0,0,0-1.73-.13,3.22,3.22,0,0,0-1.9,2.34,5.39,5.39,0,0,0-.13,1.94,6.23,6.23,0,0,0,.42,1.7,1.23,1.23,0,0,1-.09.45L11,22.13a17.66,17.66,0,0,0-.59,3.47,19.63,19.63,0,0,0,0,3.34c0,.19,0,.32.17.35s.05.3.63-.37a12.78,12.78,0,0,0,2-3.52,20.83,20.83,0,0,0,.72-2.47c.22-.85.43-1.73.64-2.56a3.19,3.19,0,0,0,1.31,1.24,4.53,4.53,0,0,0,2,.58,6.44,6.44,0,0,0,2.24-.28,6.74,6.74,0,0,0,1.75-.81,9.32,9.32,0,0,0,3.84-6.46A13.32,13.32,0,0,0,26,12.27,8,8,0,0,0,25.61,10Z" transform="translate(-6.41 -3.71)"/></g></g></svg>