<svg xmlns="http://www.w3.org/2000/svg" viewBox="0 0 25.6 20.78"><defs><style>.cls-1{isolation:isolate;}.cls-2{fill:#f38181;}</style></defs><title>twitter</title><g id="twitter" class="cls-1"><g id="twitter-2" data-name="twitter"><path class="cls-2" d="M26.24,9.39v0a2.39,2.39,0,0,0,.58-.4,5.24,5.24,0,0,0,1.7-2.47l-.65.36a8.36,8.36,0,0,1-2.69.9A5.39,5.39,0,0,0,21,6.12l-.64.07a6.67,6.67,0,0,0-1.17.36,5.18,5.18,0,0,0-3,3.53,4.88,4.88,0,0,0,0,2.46,10.06,10.06,0,0,1-2.35-.3A15.54,15.54,0,0,1,7.45,9.13,9.65,9.65,0,0,1,5.88,7.64a3.51,3.51,0,0,1-.47-.55l0,0a6.24,6.24,0,0,0-.56,1.37A5.37,5.37,0,0,0,6,13.21c.27.33.7.53,1,.84H7A1.72,1.72,0,0,1,6.27,14a6.49,6.49,0,0,1-1.1-.31l-.54-.26a5,5,0,0,0,2.47,4.5,3.9,3.9,0,0,0,1.72.69,5.22,5.22,0,0,1-2.35.1A5.3,5.3,0,0,0,9.8,22.07a4.4,4.4,0,0,0,1.57.28,5.84,5.84,0,0,1-1.42.94,10.82,10.82,0,0,1-3.16,1.13c-.47.11-1,.09-1.5.17a8.3,8.3,0,0,1-1.67-.07l.46.29a13.72,13.72,0,0,0,1.48.76,19.3,19.3,0,0,0,3.09,1,15.69,15.69,0,0,0,7.43-.31c5.5-1.71,9-5.71,10.29-11.61a15,15,0,0,0,.25-3.37l.82-.65a8.71,8.71,0,0,0,1.78-2v0A9.87,9.87,0,0,1,26.24,9.39Z" transform="translate(-3.62 -6.12)"/></g></g></svg>