<svg xmlns="http://www.w3.org/2000/svg" viewBox="0 0 32 30.5"><defs><style>.cls-1{isolation:isolate;}.cls-2{fill:#95e1d3;}</style></defs><title>ALARM</title><g id="ALARM" class="cls-1"><g id="ALARM-2" data-name="ALARM"><path class="cls-2" d="M16.35,7.93a6,6,0,0,0-8.42,8.42A16.11,16.11,0,0,1,16.35,7.93Zm12.3,13.21h-4.5v-6.5a1.5,1.5,0,0,0-3,0v8a1.5,1.5,0,0,0,1.5,1.5h6a1.5,1.5,0,0,0,0-3ZM32.77,6.65a5.83,5.83,0,0,0-3.63,1.26,15.66,15.66,0,0,1,8.24,8.24,5.86,5.86,0,0,0-4.61-9.5ZM22.65,8.14A14.49,14.49,0,0,0,12.1,32.57l-2,2a1.51,1.51,0,0,0-.43,1.06,1.5,1.5,0,0,0,1.5,1.5,1.51,1.51,0,0,0,1.06-.43l2.16-2.17a14.46,14.46,0,0,0,16.56,0l2.18,2.18a1.48,1.48,0,1,0,2.1-2.1l-2-2A14.49,14.49,0,0,0,22.65,8.14Zm0,26a11.5,11.5,0,1,1,11.5-11.5A11.49,11.49,0,0,1,22.65,34.14Z" transform="translate(-6.65 -6.65)"/></g></g></svg>