<svg xmlns="http://www.w3.org/2000/svg" viewBox="0 0 32 32"><defs><style>.cls-1{isolation:isolate;}.cls-2{fill:#95e1d3;}</style></defs><title>BOOK 2</title><g id="BOOK_2" data-name="BOOK 2" class="cls-1"><g id="BOOK_2-2" data-name="BOOK 2"><path class="cls-2" d="M12,28.51l5.5,2.5a1.46,1.46,0,0,0,.63.14,1.5,1.5,0,0,0,.62-2.87l-5.5-2.5a1.44,1.44,0,0,0-.62-.14A1.51,1.51,0,0,0,12,28.51ZM12,23l5.5,2.5h0a1.45,1.45,0,0,0,.63.13,1.5,1.5,0,0,0,1.5-1.49,1.52,1.52,0,0,0-.88-1.37l-5.5-2.5a1.44,1.44,0,0,0-.62-.14A1.51,1.51,0,0,0,12,23Zm15.13,8.14a1.44,1.44,0,0,0,.62-.14l5.5-2.5a1.5,1.5,0,0,0-.62-2.87,1.46,1.46,0,0,0-.63.14l-5.5,2.5a1.51,1.51,0,0,0,.63,2.87ZM12,17.51l5.5,2.5a1.45,1.45,0,0,0,.63.13,1.5,1.5,0,0,0,.62-2.86l-5.5-2.5a1.44,1.44,0,0,0-.62-.14A1.51,1.51,0,0,0,12,17.51Zm15.13,8.13a1.44,1.44,0,0,0,.62-.13h0l5.5-2.5a1.5,1.5,0,0,0-.62-2.87,1.46,1.46,0,0,0-.63.14l-5.5,2.5a1.51,1.51,0,0,0-.87,1.37A1.5,1.5,0,0,0,27.15,25.64Zm0-5.5a1.44,1.44,0,0,0,.62-.13l5.5-2.5a1.5,1.5,0,0,0-.62-2.87,1.46,1.46,0,0,0-.63.14l-5.5,2.5a1.5,1.5,0,0,0,.63,2.86Zm10-13.49a1.58,1.58,0,0,0-.58.11h0L22.65,12.52,8.73,6.77h0a1.56,1.56,0,0,0-.57-.11,1.5,1.5,0,0,0-1.5,1.49v23a1.49,1.49,0,0,0,.93,1.38l14.47,6a1.43,1.43,0,0,0,1.19,0l14.47-6a1.49,1.49,0,0,0,.94-1.38v-23A1.5,1.5,0,0,0,37.15,6.65Zm-16,28.25L9.65,30.14V10.39l11.5,4.76Zm14.5-4.76L24.15,34.9V15.15l11.5-4.76Z" transform="translate(-6.65 -6.65)"/></g></g></svg>