<svg xmlns="http://www.w3.org/2000/svg" viewBox="0 0 31 28"><defs><style>.cls-1{isolation:isolate;}.cls-2{fill:#95e1d3;}</style></defs><title>COMPUTER_ OK</title><g id="COMPUTER_OK" data-name="COMPUTER / OK" class="cls-1"><g id="COMPUTER_OK-2" data-name="COMPUTER / OK"><path class="cls-2" d="M20.58,22.21a1.51,1.51,0,0,0,2.13,0l4-4a1.53,1.53,0,0,0,.44-1.07,1.5,1.5,0,0,0-1.5-1.49,1.52,1.52,0,0,0-1.07.43L21.65,19l-.94-.94a1.52,1.52,0,0,0-1.06-.44,1.51,1.51,0,0,0-1.07,2.57ZM36.65,8.65h-28a1.5,1.5,0,0,0-1.5,1.49v20a1.5,1.5,0,0,0,1.5,1.5h9.5v2.5l-2,2v.51h13v-.51l-2-2v-2.5h9.5a1.5,1.5,0,0,0,1.5-1.5v-20A1.5,1.5,0,0,0,36.65,8.65Zm-.5,19h-27v-17h27Z" transform="translate(-7.15 -8.65)"/></g></g></svg>