<svg xmlns="http://www.w3.org/2000/svg" viewBox="0 0 32 30.5"><defs><style>.cls-1{isolation:isolate;}.cls-2{fill:#95e1d3;}</style></defs><title>HOME</title><g id="HOME" class="cls-1"><g id="HOME-2" data-name="HOME"><path class="cls-2" d="M38.24,22.13h0l-5.59-5.6V12.14a1.5,1.5,0,0,0-3,0v1.38l-5.91-5.9h0a1.52,1.52,0,0,0-.93-.47h-.16a1.5,1.5,0,0,0-1.09.47L7.11,22.06a1.5,1.5,0,0,0,1,2.58,1.47,1.47,0,0,0,1-.43h0L22.65,10.77h0l0,0h0L36.12,24.24h0a1.46,1.46,0,0,0,1,.4,1.5,1.5,0,0,0,1.5-1.5A1.46,1.46,0,0,0,38.24,22.13ZM9.65,25.64v10.5a1.51,1.51,0,0,0,1.5,1.51h14v-12h6v12h3a1.51,1.51,0,0,0,1.5-1.51V25.64l-13-13Zm10.5,6h-6v-6h6Z" transform="translate(-6.65 -7.14)"/></g></g></svg>