<svg xmlns="http://www.w3.org/2000/svg" viewBox="0 0 32 32"><defs><style>.cls-1{isolation:isolate;}.cls-2{fill:#95e1d3;}</style></defs><title>IMAGE</title><g id="IMAGE" class="cls-1"><g id="IMAGE-2" data-name="IMAGE"><path class="cls-2" d="M26.65,34.15h7.5V26.64a1.5,1.5,0,0,0-3,0v4.5h-4.5a1.5,1.5,0,1,0,0,3Zm0-20h4.5v4.5a1.5,1.5,0,0,0,3,0v-7.5h-7.5a1.5,1.5,0,1,0,0,3Zm-6.5,18.5a1.5,1.5,0,0,0-1.5-1.49h-4.5v-4.5a1.5,1.5,0,0,0-3,0v7.51h7.5A1.51,1.51,0,0,0,20.15,32.64Zm17-26h-29a1.5,1.5,0,0,0-1.5,1.49v29a1.51,1.51,0,0,0,1.5,1.51h29a1.51,1.51,0,0,0,1.5-1.51v-29A1.5,1.5,0,0,0,37.15,6.65Zm-1.5,29h-26v-26h26Zm-23-15.5a1.5,1.5,0,0,0,1.5-1.5v-4.5h4.5a1.5,1.5,0,1,0,0-3h-7.5v7.5A1.5,1.5,0,0,0,12.65,20.14Z" transform="translate(-6.65 -6.65)"/></g></g></svg>