<svg xmlns="http://www.w3.org/2000/svg" viewBox="0 0 32 32"><defs><style>.cls-1{isolation:isolate;}.cls-2{fill:#95e1d3;}</style></defs><title>LINE GRAPH</title><g id="LINE_GRAPH" data-name="LINE GRAPH" class="cls-1"><g id="LINE_GRAPH-2" data-name="LINE GRAPH"><path class="cls-2" d="M37.15,6.64h-29a1.5,1.5,0,0,0-1.5,1.5v29a1.5,1.5,0,0,0,1.5,1.5h29a1.5,1.5,0,0,0,1.5-1.5v-29A1.51,1.51,0,0,0,37.15,6.64Zm-1.5,29h-26v-26h26Zm-23-10a1.44,1.44,0,0,0,.84-.26l3.14-2,6.65,4.44a1.51,1.51,0,0,0,1.74,0h0l8.5-6h0a1.5,1.5,0,1,0-1.76-2.43l-7.64,5.39-6.63-4.42h0a1.51,1.51,0,0,0-1.63,0h0l-4,2.5h0a1.5,1.5,0,0,0,.79,2.78Z" transform="translate(-6.65 -6.64)"/></g></g></svg>