<svg xmlns="http://www.w3.org/2000/svg" style="display: none;">
<defs>
  <symbol id="icon-cart" viewBox="0 0 32 32">
      <title>cart</title>
      <path d="M12 29c0 1.657-1.343 3-3 3s-3-1.343-3-3c0-1.657 1.343-3 3-3s3 1.343 3 3z"></path>
      <path d="M32 29c0 1.657-1.343 3-3 3s-3-1.343-3-3c0-1.657 1.343-3 3-3s3 1.343 3 3z"></path>
      <path d="M32 16v-12h-24c0-1.105-0.895-2-2-2h-6v2h4l1.502 12.877c-0.915 0.733-1.502 1.859-1.502 3.123 0 2.209 1.791 4 4 4h24v-2h-24c-1.105 0-2-0.895-2-2 0-0.007 0-0.014 0-0.020l26-3.98z"></path>
    </symbol>
    <symbol id="icon-search" viewBox="0 0 32 32">
      <title>search</title>
      <path d="M31.008 27.231l-7.58-6.447c-0.784-0.705-1.622-1.029-2.299-0.998 1.789-2.096 2.87-4.815 2.87-7.787 0-6.627-5.373-12-12-12s-12 5.373-12 12 5.373 12 12 12c2.972 0 5.691-1.081 7.787-2.87-0.031 0.677 0.293 1.515 0.998 2.299l6.447 7.58c1.104 1.226 2.907 1.33 4.007 0.23s0.997-2.903-0.23-4.007zM12 20c-4.418 0-8-3.582-8-8s3.582-8 8-8 8 3.582 8 8-3.582 8-8 8z"></path>
    </symbol>
    <symbol id="icon-alarm" viewBox="0 0 32 32">
      <title>alarm</title>
      <path fill="#95e1d3" style="fill: var(--color1, #95e1d3)" d="M9.7 1.78c-1.006-0.789-2.29-1.265-3.685-1.265-3.314 0-6 2.686-6 6 0 1.395 0.476 2.679 1.275 3.698l-0.010-0.013c1.663-3.792 4.628-6.757 8.317-8.379l0.103-0.041zM22 14.99h-4.5v-6.5c0-0.828-0.672-1.5-1.5-1.5s-1.5 0.672-1.5 1.5v0 8c0 0.828 0.672 1.5 1.5 1.5v0h6c0.828 0 1.5-0.672 1.5-1.5s-0.672-1.5-1.5-1.5v0zM26.12 0.5c-0.003 0-0.006 0-0.010 0-1.373 0-2.636 0.475-3.632 1.269l0.012-0.009c3.717 1.618 6.622 4.523 8.201 8.139l0.039 0.101c0.79-0.99 1.268-2.259 1.268-3.64 0-3.236-2.624-5.86-5.86-5.86-0.006 0-0.012 0-0.019 0h0.001zM16 1.99c-0.002 0-0.005 0-0.007 0-8.003 0-14.49 6.487-14.49 14.49 0 3.851 1.503 7.352 3.953 9.947l-0.007-0.007-2 2c-0.266 0.272-0.43 0.645-0.43 1.055 0 0.002 0 0.003 0 0.005v-0c0 0.828 0.672 1.5 1.5 1.5v0c0.001 0 0.003 0 0.005 0 0.411 0 0.783-0.164 1.056-0.43l-0 0 2.16-2.17c2.308 1.63 5.18 2.605 8.28 2.605s5.972-0.975 8.326-2.636l-0.046 0.030 2.18 2.18c0.269 0.269 0.64 0.435 1.050 0.435 0.82 0 1.485-0.665 1.485-1.485 0-0.41-0.166-0.781-0.435-1.050v0l-2-2c2.467-2.593 3.985-6.109 3.985-9.98 0-8.003-6.487-14.49-14.49-14.49-0.026 0-0.053 0-0.079 0l0.004-0zM16 27.99c-6.351 0-11.5-5.149-11.5-11.5s5.149-11.5 11.5-11.5c6.351 0 11.5 5.149 11.5 11.5v0c0 0.003 0 0.006 0 0.010 0 6.346-5.144 11.49-11.49 11.49-0.004 0-0.007 0-0.011 0h0.001z"></path>
    </symbol>
    <symbol id="icon-book" viewBox="0 0 32 32">
      <title>book</title>
      <path fill="#95e1d3" style="fill: var(--color1, #95e1d3)" d="M5.35 21.86l5.5 2.5c0.183 0.088 0.397 0.14 0.624 0.14 0.002 0 0.004 0 0.006 0h-0c0.003 0 0.006 0 0.009 0 0.828 0 1.5-0.672 1.5-1.5 0-0.607-0.361-1.13-0.88-1.366l-0.009-0.004-5.5-2.5c-0.181-0.088-0.394-0.14-0.619-0.14-0 0-0 0-0.001 0h0c-0.823 0.014-1.484 0.685-1.484 1.51 0 0.595 0.345 1.11 0.845 1.356l0.009 0.004zM5.35 16.35l5.5 2.5c0.176 0.082 0.383 0.13 0.601 0.13 0.010 0 0.021-0 0.031-0l-0.002 0c0 0 0 0 0 0 0.825 0 1.494-0.666 1.5-1.489v-0.001c-0.004-0.604-0.359-1.124-0.871-1.366l-0.009-0.004-5.5-2.5c-0.181-0.088-0.394-0.14-0.619-0.14-0 0-0 0-0.001 0h0c-0.823 0.014-1.484 0.685-1.484 1.51 0 0.595 0.345 1.11 0.845 1.356l0.009 0.004zM20.48 24.49c0 0 0 0 0.001 0 0.225 0 0.438-0.052 0.628-0.144l-0.009 0.004 5.5-2.5c0.528-0.24 0.889-0.763 0.889-1.37 0-0.828-0.672-1.5-1.5-1.5-0.003 0-0.006 0-0.010 0h0c-0.002 0-0.004 0-0.006 0-0.227 0-0.441 0.052-0.633 0.144l0.009-0.004-5.5 2.5c-0.51 0.25-0.854 0.765-0.854 1.36 0 0.825 0.662 1.495 1.483 1.51l0.001 0zM5.35 10.86l5.5 2.5c0.176 0.082 0.383 0.13 0.601 0.13 0.010 0 0.021-0 0.031-0l-0.002 0c0.823-0.007 1.487-0.676 1.487-1.5 0-0.599-0.351-1.116-0.858-1.356l-0.009-0.004-5.5-2.5c-0.181-0.088-0.394-0.14-0.619-0.14-0 0-0 0-0.001 0h0c-0.823 0.014-1.484 0.685-1.484 1.51 0 0.595 0.345 1.11 0.845 1.356l0.009 0.004zM20.48 18.99c0.006 0 0.014 0 0.022 0 0.217 0 0.423-0.048 0.607-0.134l-0.009 0.004 5.5-2.5c0.528-0.24 0.889-0.763 0.889-1.37 0-0.828-0.672-1.5-1.5-1.5-0.003 0-0.006 0-0.010 0h0c-0.002 0-0.004 0-0.006 0-0.227 0-0.441 0.052-0.633 0.144l0.009-0.004-5.5 2.5c-0.518 0.247-0.87 0.766-0.87 1.368 0 0.001 0 0.002 0 0.002v-0c0.006 0.824 0.675 1.49 1.5 1.49 0.007 0 0.014-0 0.021-0h-0.001zM20.48 13.49c0.006 0 0.014 0 0.022 0 0.217 0 0.423-0.048 0.607-0.134l-0.009 0.004 5.5-2.5c0.528-0.24 0.889-0.763 0.889-1.37 0-0.828-0.672-1.5-1.5-1.5-0.003 0-0.006 0-0.010 0h0c-0.002 0-0.004 0-0.006 0-0.227 0-0.441 0.052-0.633 0.144l0.009-0.004-5.5 2.5c-0.516 0.244-0.867 0.761-0.867 1.36 0 0.827 0.67 1.498 1.497 1.5h0zM30.48 0c-0 0-0 0-0.001 0-0.209 0-0.408 0.040-0.59 0.114l0.011-0.004-13.9 5.76-13.92-5.75c-0.169-0.069-0.365-0.109-0.57-0.11h-0c0 0-0 0-0 0-0.825 0-1.494 0.666-1.5 1.489v23.001c0 0.621 0.38 1.153 0.92 1.376l0.010 0.004 14.47 6c0.175 0.082 0.379 0.13 0.595 0.13s0.42-0.048 0.604-0.133l-0.009 0.004 14.47-6c0.554-0.224 0.938-0.757 0.94-1.38v-23c0 0 0-0 0-0 0-0.828-0.672-1.5-1.5-1.5-0.003 0-0.007 0-0.011 0h0.001zM14.48 28.25l-11.48-4.76v-19.75l11.5 4.76zM28.98 23.49l-11.48 4.76v-19.75l11.5-4.76z"></path>
    </symbol>
    <symbol id="icon-computer" viewBox="0 0 32 32">
      <title>computer</title>
      <path fill="#95e1d3" style="fill: var(--color1, #95e1d3)" d="M13.863 15.546c0.282 0.28 0.67 0.454 1.099 0.454s0.818-0.173 1.099-0.454l4.129-4.129c0.28-0.284 0.453-0.674 0.454-1.104v-0c-0.006-0.851-0.697-1.538-1.548-1.538 0 0-0 0-0 0v0c-0.003-0-0.007-0-0.011-0-0.425 0-0.811 0.169-1.094 0.444l0-0-3.025 3.014-0.97-0.97c-0.281-0.278-0.667-0.451-1.094-0.454h-0.001c-0.858 0.003-1.553 0.7-1.553 1.559 0 0.426 0.171 0.813 0.449 1.094l-0-0zM30.452 1.548h-28.903c0 0-0 0-0 0-0.852 0-1.542 0.687-1.548 1.538v20.646c0 0.855 0.693 1.548 1.548 1.548v0h9.806v2.581l-2.065 2.065v0.526h13.419v-0.526l-2.065-2.065v-2.581h9.806c0.855 0 1.548-0.693 1.548-1.548v0-20.645c-0.006-0.851-0.697-1.538-1.548-1.538 0 0-0 0-0 0v0zM29.935 21.161h-27.871v-17.548h27.871z"></path>
    </symbol>
    <symbol id="icon-home" viewBox="0 0 32 32">
      <title>home</title>
      <path fill="#95e1d3" style="fill: var(--color1, #95e1d3)" d="M31.59 15.49v0l-5.59-5.6v-4.39c0-0.828-0.672-1.5-1.5-1.5s-1.5 0.672-1.5 1.5v0 1.38l-5.91-5.9c-0.238-0.254-0.561-0.425-0.923-0.469l-0.007-0.001h-0.16c-0.429 0-0.816 0.18-1.089 0.469l-0.001 0.001-14.45 14.44c-0.284 0.273-0.46 0.656-0.46 1.081 0 0.814 0.649 1.477 1.458 1.499l0.002 0c0.391-0.011 0.743-0.173 1-0.43v0l13.54-13.44 13.47 13.47c0.26 0.247 0.612 0.399 1 0.4h0c0.828 0 1.5-0.672 1.5-1.5v0c0-0.008 0-0.018 0-0.027 0-0.379-0.144-0.724-0.381-0.984l0.001 0.001zM3 19v10.5c0 0 0 0 0 0 0 0.83 0.67 1.504 1.499 1.51h14.001v-12h6v12h3c0.83-0.006 1.5-0.68 1.5-1.51 0 0 0-0 0-0v0-10.5l-13-13zM13.5 25h-6v-6h6z"></path>
    </symbol>
    <symbol id="icon-image" viewBox="0 0 32 32">
      <title>image</title>
      <path fill="#95e1d3" style="fill: var(--color1, #95e1d3)" d="M20 27.5h7.5v-7.51c0-0.828-0.672-1.5-1.5-1.5s-1.5 0.672-1.5 1.5v0 4.5h-4.5c-0.828 0-1.5 0.672-1.5 1.5s0.672 1.5 1.5 1.5v0zM20 7.5h4.5v4.5c0 0.828 0.672 1.5 1.5 1.5s1.5-0.672 1.5-1.5v0-7.5h-7.5c-0.828 0-1.5 0.672-1.5 1.5s0.672 1.5 1.5 1.5v0zM13.5 26c-0.006-0.824-0.675-1.49-1.5-1.49 0 0-0 0-0 0h-4.5v-4.5c0-0.828-0.672-1.5-1.5-1.5s-1.5 0.672-1.5 1.5v0 7.51h7.5c0.83-0.006 1.5-0.68 1.5-1.51 0-0.007-0-0.014-0-0.021v0.001zM30.5 0h-29c0 0-0 0-0 0-0.825 0-1.494 0.666-1.5 1.489v29.001c0 0 0 0 0 0 0 0.83 0.67 1.504 1.499 1.51h29.001c0.83-0.006 1.5-0.68 1.5-1.51 0 0 0-0 0-0v0-29c-0.006-0.824-0.675-1.49-1.5-1.49 0 0-0 0-0 0v0zM29 29h-26v-26h26zM6 13.5c0.828 0 1.5-0.672 1.5-1.5v0-4.5h4.5c0.828 0 1.5-0.672 1.5-1.5s-0.672-1.5-1.5-1.5v0h-7.5v7.5c0.006 0.824 0.675 1.49 1.5 1.49 0 0 0 0 0 0v0z"></path>
    </symbol>
    <symbol id="icon-line_graph" viewBox="0 0 32 32">
      <title>line_graph</title>
      <path fill="#95e1d3" style="fill: var(--color1, #95e1d3)" d="M30.5 0h-29c-0.828 0-1.5 0.672-1.5 1.5v0 29c0 0.828 0.672 1.5 1.5 1.5v0h29c0.828 0 1.5-0.672 1.5-1.5v0-29c-0.006-0.826-0.674-1.494-1.499-1.5h-0.001zM29 29h-26v-26h26zM6 19c0.004 0 0.009 0 0.015 0 0.309 0 0.595-0.097 0.83-0.263l-0.005 0.003 3.14-2 6.65 4.44c0.242 0.173 0.544 0.276 0.87 0.276s0.628-0.103 0.875-0.279l-0.005 0.003 8.5-6c0.378-0.276 0.62-0.717 0.62-1.215 0-0.829-0.672-1.5-1.5-1.5-0.331 0-0.636 0.107-0.884 0.288l0.004-0.003-7.64 5.39-6.63-4.42c-0.23-0.15-0.512-0.239-0.815-0.239s-0.585 0.089-0.821 0.242l0.006-0.004-4 2.5c-0.434 0.268-0.718 0.741-0.718 1.28 0 0.828 0.672 1.5 1.5 1.5 0.003 0 0.006 0 0.008-0h-0z"></path>
    </symbol>
  </defs>
</svg>
