<svg xmlns="http://www.w3.org/2000/svg" style="display: none;">
<defs>
  <symbol id="icon-cart" viewBox="0 0 32 32">
      <title>cart</title>
      <path d="M12 29c0 1.657-1.343 3-3 3s-3-1.343-3-3c0-1.657 1.343-3 3-3s3 1.343 3 3z"></path>
      <path d="M32 29c0 1.657-1.343 3-3 3s-3-1.343-3-3c0-1.657 1.343-3 3-3s3 1.343 3 3z"></path>
      <path d="M32 16v-12h-24c0-1.105-0.895-2-2-2h-6v2h4l1.502 12.877c-0.915 0.733-1.502 1.859-1.502 3.123 0 2.209 1.791 4 4 4h24v-2h-24c-1.105 0-2-0.895-2-2 0-0.007 0-0.014 0-0.020l26-3.98z"></path>
    </symbol>
    <symbol id="icon-search" viewBox="0 0 32 32">
      <title>search</title>
      <path d="M31.008 27.231l-7.58-6.447c-0.784-0.705-1.622-1.029-2.299-0.998 1.789-2.096 2.87-4.815 2.87-7.787 0-6.627-5.373-12-12-12s-12 5.373-12 12 5.373 12 12 12c2.972 0 5.691-1.081 7.787-2.87-0.031 0.677 0.293 1.515 0.998 2.299l6.447 7.58c1.104 1.226 2.907 1.33 4.007 0.23s0.997-2.903-0.23-4.007zM12 20c-4.418 0-8-3.582-8-8s3.582-8 8-8 8 3.582 8 8-3.582 8-8 8z"></path>
    </symbol>
    <symbol id="icon-alarm" viewBox="0 0 32 32">
      <title>alarm</title>
      <path fill="#95e1d3" style="fill: var(--color1, #95e1d3)" d="M9.7 1.78c-1.006-0.789-2.29-1.265-3.685-1.265-3.314 0-6 2.686-6 6 0 1.395 0.476 2.679 1.275 3.698l-0.010-0.013c1.663-3.792 4.628-6.757 8.317-8.379l0.103-0.041zM22 14.99h-4.5v-6.5c0-0.828-0.672-1.5-1.5-1.5s-1.5 0.672-1.5 1.5v0 8c0 0.828 0.672 1.5 1.5 1.5v0h6c0.828 0 1.5-0.672 1.5-1.5s-0.672-1.5-1.5-1.5v0zM26.12 0.5c-0.003 0-0.006 0-0.010 0-1.373 0-2.636 0.475-3.632 1.269l0.012-0.009c3.717 1.618 6.622 4.523 8.201 8.139l0.039 0.101c0.79-0.99 1.268-2.259 1.268-3.64 0-3.236-2.624-5.86-5.86-5.86-0.006 0-0.012 0-0.019 0h0.001zM16 1.99c-0.002 0-0.005 0-0.007 0-8.003 0-14.49 6.487-14.49 14.49 0 3.851 1.503 7.352 3.953 9.947l-0.007-0.007-2 2c-0.266 0.272-0.43 0.645-0.43 1.055 0 0.002 0 0.003 0 0.005v-0c0 0.828 0.672 1.5 1.5 1.5v0c0.001 0 0.003 0 0.005 0 0.411 0 0.783-0.164 1.056-0.43l-0 0 2.16-2.17c2.308 1.63 5.18 2.605 8.28 2.605s5.972-0.975 8.326-2.636l-0.046 0.030 2.18 2.18c0.269 0.269 0.64 0.435 1.050 0.435 0.82 0 1.485-0.665 1.485-1.485 0-0.41-0.166-0.781-0.435-1.050v0l-2-2c2.467-2.593 3.985-6.109 3.985-9.98 0-8.003-6.487-14.49-14.49-14.49-0.026 0-0.053 0-0.079 0l0.004-0zM16 27.99c-6.351 0-11.5-5.149-11.5-11.5s5.149-11.5 11.5-11.5c6.351 0 11.5 5.149 11.5 11.5v0c0 0.003 0 0.006 0 0.010 0 6.346-5.144 11.49-11.49 11.49-0.004 0-0.007 0-0.011 0h0.001z"></path>
    </symbol>
    <symbol id="icon-book" viewBox="0 0 32 32">
      <title>book</title>
      <path fill="#95e1d3" style="fill: var(--color1, #95e1d3)" d="M5.35 21.86l5.5 2.5c0.183 0.088 0.397 0.14 0.624 0.14 0.002 0 0.004 0 0.006 0h-0c0.003 0 0.006 0 0.009 0 0.828 0 1.5-0.672 1.5-1.5 0-0.607-0.361-1.13-0.88-1.366l-0.009-0.004-5.5-2.5c-0.181-0.088-0.394-0.14-0.619-0.14-0 0-0 0-0.001 0h0c-0.823 0.014-1.484 0.685-1.484 1.51 0 0.595 0.345 1.11 0.845 1.356l0.009 0.004zM5.35 16.35l5.5 2.5c0.176 0.082 0.383 0.13 0.601 0.13 0.010 0 0.021-0 0.031-0l-0.002 0c0 0 0 0 0 0 0.825 0 1.494-0.666 1.5-1.489v-0.001c-0.004-0.604-0.359-1.124-0.871-1.366l-0.009-0.004-5.5-2.5c-0.181-0.088-0.394-0.14-0.619-0.14-0 0-0 0-0.001 0h0c-0.823 0.014-1.484 0.685-1.484 1.51 0 0.595 0.345 1.11 0.845 1.356l0.009 0.004zM20.48 24.49c0 0 0 0 0.001 0 0.225 0 0.438-0.052 0.628-0.144l-0.009 0.004 5.5-2.5c0.528-0.24 0.889-0.763 0.889-1.37 0-0.828-0.672-1.5-1.5-1.5-0.003 0-0.006 0-0.010 0h0c-0.002 0-0.004 0-0.006 0-0.227 0-0.441 0.052-0.633 0.144l0.009-0.004-5.5 2.5c-0.51 0.25-0.854 0.765-0.854 1.36 0 0.825 0.662 1.495 1.483 1.51l0.001 0zM5.35 10.86l5.5 2.5c0.176 0.082 0.383 0.13 0.601 0.13 0.010 0 0.021-0 0.031-0l-0.002 0c0.823-0.007 1.487-0.676 1.487-1.5 0-0.599-0.351-1.116-0.858-1.356l-0.009-0.004-5.5-2.5c-0.181-0.088-0.394-0.14-0.619-0.14-0 0-0 0-0.001 0h0c-0.823 0.014-1.484 0.685-1.484 1.51 0 0.595 0.345 1.11 0.845 1.356l0.009 0.004zM20.48 18.99c0.006 0 0.014 0 0.022 0 0.217 0 0.423-0.048 0.607-0.134l-0.009 0.004 5.5-2.5c0.528-0.24 0.889-0.763 0.889-1.37 0-0.828-0.672-1.5-1.5-1.5-0.003 0-0.006 0-0.010 0h0c-0.002 0-0.004 0-0.006 0-0.227 0-0.441 0.052-0.633 0.144l0.009-0.004-5.5 2.5c-0.518 0.247-0.87 0.766-0.87 1.368 0 0.001 0 0.002 0 0.002v-0c0.006 0.824 0.675 1.49 1.5 1.49 0.007 0 0.014-0 0.021-0h-0.001zM20.48 13.49c0.006 0 0.014 0 0.022 0 0.217 0 0.423-0.048 0.607-0.134l-0.009 0.004 5.5-2.5c0.528-0.24 0.889-0.763 0.889-1.37 0-0.828-0.672-1.5-1.5-1.5-0.003 0-0.006 0-0.010 0h0c-0.002 0-0.004 0-0.006 0-0.227 0-0.441 0.052-0.633 0.144l0.009-0.004-5.5 2.5c-0.516 0.244-0.867 0.761-0.867 1.36 0 0.827 0.67 1.498 1.497 1.5h0zM30.48 0c-0 0-0 0-0.001 0-0.209 0-0.408 0.040-0.59 0.114l0.011-0.004-13.9 5.76-13.92-5.75c-0.169-0.069-0.365-0.109-0.57-0.11h-0c0 0-0 0-0 0-0.825 0-1.494 0.666-1.5 1.489v23.001c0 0.621 0.38 1.153 0.92 1.376l0.010 0.004 14.47 6c0.175 0.082 0.379 0.13 0.595 0.13s0.42-0.048 0.604-0.133l-0.009 0.004 14.47-6c0.554-0.224 0.938-0.757 0.94-1.38v-23c0 0 0-0 0-0 0-0.828-0.672-1.5-1.5-1.5-0.003 0-0.007 0-0.011 0h0.001zM14.48 28.25l-11.48-4.76v-19.75l11.5 4.76zM28.98 23.49l-11.48 4.76v-19.75l11.5-4.76z"></path>
    </symbol>
    <symbol id="icon-computer" viewBox="0 0 32 32">
      <title>computer</title>
      <path fill="#95e1d3" style="fill: var(--color1, #95e1d3)" d="M13.863 15.546c0.282 0.28 0.67 0.454 1.099 0.454s0.818-0.173 1.099-0.454l4.129-4.129c0.28-0.284 0.453-0.674 0.454-1.104v-0c-0.006-0.851-0.697-1.538-1.548-1.538 0 0-0 0-0 0v0c-0.003-0-0.007-0-0.011-0-0.425 0-0.811 0.169-1.094 0.444l0-0-3.025 3.014-0.97-0.97c-0.281-0.278-0.667-0.451-1.094-0.454h-0.001c-0.858 0.003-1.553 0.7-1.553 1.559 0 0.426 0.171 0.813 0.449 1.094l-0-0zM30.452 1.548h-28.903c0 0-0 0-0 0-0.852 0-1.542 0.687-1.548 1.538v20.646c0 0.855 0.693 1.548 1.548 1.548v0h9.806v2.581l-2.065 2.065v0.526h13.419v-0.526l-2.065-2.065v-2.581h9.806c0.855 0 1.548-0.693 1.548-1.548v0-20.645c-0.006-0.851-0.697-1.538-1.548-1.538 0 0-0 0-0 0v0zM29.935 21.161h-27.871v-17.548h27.871z"></path>
    </symbol>
    <symbol id="icon-home" viewBox="0 0 32 32">
      <title>home</title>
      <path fill="#95e1d3" style="fill: var(--color1, #95e1d3)" d="M31.59 15.49v0l-5.59-5.6v-4.39c0-0.828-0.672-1.5-1.5-1.5s-1.5 0.672-1.5 1.5v0 1.38l-5.91-5.9c-0.238-0.254-0.561-0.425-0.923-0.469l-0.007-0.001h-0.16c-0.429 0-0.816 0.18-1.089 0.469l-0.001 0.001-14.45 14.44c-0.284 0.273-0.46 0.656-0.46 1.081 0 0.814 0.649 1.477 1.458 1.499l0.002 0c0.391-0.011 0.743-0.173 1-0.43v0l13.54-13.44 13.47 13.47c0.26 0.247 0.612 0.399 1 0.4h0c0.828 0 1.5-0.672 1.5-1.5v0c0-0.008 0-0.018 0-0.027 0-0.379-0.144-0.724-0.381-0.984l0.001 0.001zM3 19v10.5c0 0 0 0 0 0 0 0.83 0.67 1.504 1.499 1.51h14.001v-12h6v12h3c0.83-0.006 1.5-0.68 1.5-1.51 0 0 0-0 0-0v0-10.5l-13-13zM13.5 25h-6v-6h6z"></path>
    </symbol>
    <symbol id="icon-image" viewBox="0 0 32 32">
      <title>image</title>
      <path fill="#95e1d3" style="fill: var(--color1, #95e1d3)" d="M20 27.5h7.5v-7.51c0-0.828-0.672-1.5-1.5-1.5s-1.5 0.672-1.5 1.5v0 4.5h-4.5c-0.828 0-1.5 0.672-1.5 1.5s0.672 1.5 1.5 1.5v0zM20 7.5h4.5v4.5c0 0.828 0.672 1.5 1.5 1.5s1.5-0.672 1.5-1.5v0-7.5h-7.5c-0.828 0-1.5 0.672-1.5 1.5s0.672 1.5 1.5 1.5v0zM13.5 26c-0.006-0.824-0.675-1.49-1.5-1.49 0 0-0 0-0 0h-4.5v-4.5c0-0.828-0.672-1.5-1.5-1.5s-1.5 0.672-1.5 1.5v0 7.51h7.5c0.83-0.006 1.5-0.68 1.5-1.51 0-0.007-0-0.014-0-0.021v0.001zM30.5 0h-29c0 0-0 0-0 0-0.825 0-1.494 0.666-1.5 1.489v29.001c0 0 0 0 0 0 0 0.83 0.67 1.504 1.499 1.51h29.001c0.83-0.006 1.5-0.68 1.5-1.51 0 0 0-0 0-0v0-29c-0.006-0.824-0.675-1.49-1.5-1.49 0 0-0 0-0 0v0zM29 29h-26v-26h26zM6 13.5c0.828 0 1.5-0.672 1.5-1.5v0-4.5h4.5c0.828 0 1.5-0.672 1.5-1.5s-0.672-1.5-1.5-1.5v0h-7.5v7.5c0.006 0.824 0.675 1.49 1.5 1.49 0 0 0 0 0 0v0z"></path>
    </symbol>
    <symbol id="icon-line_graph" viewBox="0 0 32 32">
      <title>line_graph</title>
      <path fill="#95e1d3" style="fill: var(--color1, #95e1d3)" d="M30.5 0h-29c-0.828 0-1.5 0.672-1.5 1.5v0 29c0 0.828 0.672 1.5 1.5 1.5v0h29c0.828 0 1.5-0.672 1.5-1.5v0-29c-0.006-0.826-0.674-1.494-1.499-1.5h-0.001zM29 29h-26v-26h26zM6 19c0.004 0 0.009 0 0.015 0 0.309 0 0.595-0.097 0.83-0.263l-0.005 0.003 3.14-2 6.65 4.44c0.242 0.173 0.544 0.276 0.87 0.276s0.628-0.103 0.875-0.279l-0.005 0.003 8.5-6c0.378-0.276 0.62-0.717 0.62-1.215 0-0.829-0.672-1.5-1.5-1.5-0.331 0-0.636 0.107-0.884 0.288l0.004-0.003-7.64 5.39-6.63-4.42c-0.23-0.15-0.512-0.239-0.815-0.239s-0.585 0.089-0.821 0.242l0.006-0.004-4 2.5c-0.434 0.268-0.718 0.741-0.718 1.28 0 0.828 0.672 1.5 1.5 1.5 0.003 0 0.006 0 0.008-0h-0z"></path>
    </symbol>
   <symbol id="icon-facebook" viewBox="0 0 15 32">
<path  d="M9.971 11.021c0-1.662-0.262-3.998 0.262-4.786 0.95-1.462 4.748-1.075 4.748-1.075v-5.16c-5.998 0-7.959-0.25-9.996 1.837-1.837 1.862-1.899 5.51-2.012 9.184h-2.974v4.998h2.974v15.981h6.972v-16.006h4.023c0.312-1.687 0.612-3.011 1.037-4.998z"></path>
</symbol>
<symbol id="icon-instagram" viewBox="0 0 32 32">
<path d="M28 0h-24.025c-2.209 0-4 1.791-4 4v0 24c0 2.209 1.791 4 4 4v0h24c2.206-0.007 3.993-1.794 4-3.999v-24.001c0-0 0-0 0-0 0-2.2-1.777-3.986-3.974-4h-0.001zM9.838 15.35c-0.003-0.026-0.005-0.057-0.005-0.088s0.002-0.061 0.005-0.091l-0 0.004c0-0.162 0-0.313 0.075-0.463s0-0.137 0-0.2c0.041-0.174 0.084-0.316 0.134-0.454l-0.009 0.029c0.015-0.076 0.036-0.143 0.065-0.206l-0.002 0.006c0-0.137 0.1-0.262 0.162-0.4v-0.063c1.002-2.148 3.143-3.61 5.625-3.61s4.623 1.462 5.609 3.572l0.016 0.038s0 0 0 0.063 0.113 0.262 0.163 0.4l0.075 0.2 0.113 0.425c0.003 0.030 0.005 0.065 0.005 0.1s-0.002 0.070-0.006 0.104l0-0.004c0.035 0.134 0.062 0.291 0.074 0.453l0.001 0.009v0.175c0.006 0.101 0.009 0.219 0.009 0.338s-0.003 0.237-0.010 0.354l0.001-0.016c0.032 0.237 0.050 0.511 0.050 0.789 0 3.452-2.798 6.25-6.25 6.25s-6.25-2.798-6.25-6.25c0-0.278 0.018-0.552 0.053-0.821l-0.003 0.032c0.102-0.271 0.203-0.493 0.316-0.708l-0.016 0.033zM28.4 26.825c-0.007 0.881-0.719 1.593-1.599 1.6h-21.576c-0.008 0-0.016 0-0.025 0-0.884 0-1.6-0.716-1.6-1.6 0-0.009 0-0.018 0-0.027l-0 0.001v-13.4h2.95c-0.222 0.762-0.35 1.637-0.35 2.542 0 0.020 0 0.041 0 0.061l-0-0.003c0.002 5.411 4.389 9.796 9.8 9.796 5.412 0 9.8-4.388 9.8-9.8 0-0.924-0.128-1.817-0.367-2.665l0.017 0.069h2.95zM28.4 8.425c-0.007 0.881-0.719 1.593-1.599 1.6h-3.201c-0.884 0-1.6-0.716-1.6-1.6v0-3.225c0-0.884 0.716-1.6 1.6-1.6v0h3.2c0.884 0 1.6 0.716 1.6 1.6v0z"></path>
</symbol>
<symbol id="icon-pinterest" viewBox="0 0 24 32">
<path  d="M23.944 7.844c-0.457-1.604-1.245-2.989-2.29-4.136l0.007 0.008c-1.030-1.12-2.274-2.025-3.67-2.653l-0.071-0.029c-1.427-0.646-3.094-1.023-4.85-1.023-0.194 0-0.386 0.005-0.577 0.014l0.027-0.001c-0.711 0-1.372 0.075-1.995 0.162-1.8 0.259-3.42 0.847-4.862 1.704l0.060-0.033c-2.793 1.648-4.803 4.369-5.474 7.582l-0.013 0.075c-0.113 0.607-0.178 1.306-0.178 2.020s0.065 1.413 0.188 2.091l-0.011-0.071c0.258 1.977 1.379 3.649 2.966 4.648l0.027 0.016c0.229 0.145 0.497 0.25 0.786 0.298l0.012 0.002c0.624 0 0.636-0.748 0.773-1.247s0.387-1.048 0.15-1.459-0.474-0.486-0.599-0.773c-0.534-0.828-0.851-1.839-0.851-2.924 0-0.064 0.001-0.127 0.003-0.19l-0 0.009c-0-0.022-0-0.048-0-0.074 0-1.53 0.388-2.969 1.071-4.225l-0.023 0.046c1.22-2.34 3.46-4.003 6.114-4.409l0.046-0.006c0.508-0.089 1.093-0.14 1.69-0.14 1.061 0 2.084 0.16 3.047 0.459l-0.073-0.019c1.272 0.403 2.34 1.145 3.133 2.121l0.009 0.012c0.817 1.069 1.332 2.408 1.396 3.864l0 0.015c0.013 0.228 0.021 0.495 0.021 0.764 0 0.61-0.039 1.21-0.116 1.799l0.007-0.070c-0.161 2.203-0.917 4.202-2.107 5.872l0.024-0.035c-0.73 1.099-1.912 1.848-3.274 1.981l-0.018 0.001c-0.076 0.007-0.164 0.011-0.253 0.011-0.668 0-1.286-0.214-1.788-0.578l0.009 0.006c-0.528-0.378-0.909-0.934-1.057-1.578l-0.003-0.018c-0.028-0.194-0.044-0.419-0.044-0.647 0-0.578 0.103-1.131 0.292-1.643l-0.011 0.033c0.399-1.472 0.836-2.606 1.172-4.128 0.116-0.422 0.182-0.906 0.182-1.406 0-0.336-0.030-0.665-0.088-0.984l0.005 0.034c-0.132-0.664-0.529-1.217-1.075-1.553l-0.010-0.006c-0.366-0.198-0.801-0.315-1.264-0.315-0.32 0-0.628 0.056-0.913 0.159l0.019-0.006c-1.212 0.524-2.102 1.595-2.365 2.892l-0.004 0.026c-0.131 0.496-0.206 1.065-0.206 1.652 0 0.27 0.016 0.537 0.047 0.799l-0.003-0.032c0.081 0.783 0.266 1.501 0.543 2.172l-0.019-0.052c-0.002 0.203-0.043 0.395-0.116 0.571l0.004-0.010-1.783 7.682c-0.363 1.263-0.624 2.739-0.732 4.257l-0.004 0.070c-0.057 0.624-0.089 1.349-0.089 2.083s0.032 1.459 0.095 2.175l-0.007-0.093c0 0.237 0 0.399 0.212 0.436s0.062 0.374 0.786-0.461c1.015-1.257 1.857-2.709 2.457-4.28l0.037-0.109c0.31-0.821 0.619-1.851 0.864-2.905l0.034-0.175c0.274-1.060 0.536-2.157 0.798-3.193 0.39 0.663 0.946 1.191 1.612 1.536l0.022 0.010c0.718 0.413 1.571 0.675 2.48 0.723l0.014 0.001c0.124 0.007 0.27 0.011 0.416 0.011 0.849 0 1.666-0.132 2.434-0.376l-0.057 0.016c0.831-0.252 1.555-0.596 2.214-1.030l-0.032 0.020c2.592-1.865 4.371-4.719 4.783-7.999l0.006-0.057c0.197-0.873 0.327-1.889 0.361-2.929l0.001-0.027c-0.027-1.020-0.203-1.99-0.507-2.901l0.020 0.070z"></path>
</symbol>
<symbol id="icon-twitter" viewBox="0 0 39 32">
<path  d="M34.834 5.036v0c0.342-0.17 0.636-0.375 0.895-0.618l-0.002 0.002c1.202-0.973 2.111-2.265 2.602-3.747l0.016-0.057-1.001 0.554c-1.198 0.658-2.592 1.143-4.069 1.376l-0.073 0.010c-1.514-1.583-3.643-2.568-6.003-2.568-0.153 0-0.305 0.004-0.455 0.012l0.021-0.001-0.986 0.108c-0.691 0.147-1.294 0.338-1.869 0.58l0.068-0.025c-2.293 0.995-4 2.969-4.608 5.381l-0.012 0.055c-0.154 0.568-0.243 1.221-0.243 1.894s0.089 1.326 0.255 1.947l-0.012-0.053c-1.29-0.012-2.536-0.18-3.726-0.485l0.107 0.023c-3.787-0.874-7.097-2.54-9.882-4.823l0.042 0.034c-0.904-0.687-1.697-1.441-2.4-2.272l-0.018-0.022c-0.266-0.253-0.504-0.53-0.712-0.829l-0.012-0.018c-0.343 0.605-0.637 1.306-0.846 2.042l-0.016 0.068c-0.144 0.578-0.227 1.242-0.227 1.925 0 2.064 0.756 3.952 2.007 5.401l-0.009-0.011c0.416 0.508 1.078 0.816 1.54 1.294v0c-0.116 0.018-0.249 0.028-0.385 0.028-0.263 0-0.518-0.038-0.758-0.11l0.019 0.005c-0.649-0.124-1.217-0.289-1.762-0.501l0.068 0.023-0.832-0.4c-0.003 0.085-0.005 0.185-0.005 0.285 0 2.818 1.514 5.283 3.773 6.625l0.035 0.020c0.745 0.539 1.643 0.916 2.616 1.059l0.033 0.004c-0.642 0.185-1.38 0.291-2.142 0.291-0.522 0-1.033-0.050-1.527-0.145l0.050 0.008c0.825 2.435 2.7 4.319 5.071 5.142l0.057 0.017c0.707 0.273 1.524 0.431 2.379 0.431 0.014 0 0.027-0 0.041-0h-0.002c-0.63 0.566-1.35 1.050-2.133 1.424l-0.054 0.023c-1.405 0.782-3.035 1.386-4.761 1.723l-0.105 0.017c-0.724 0.169-1.54 0.139-2.31 0.262-0.225 0.014-0.488 0.022-0.753 0.022-0.642 0-1.272-0.047-1.888-0.139l0.070 0.008 0.708 0.447c0.625 0.38 1.373 0.771 2.145 1.117l0.134 0.054c1.328 0.578 2.916 1.107 4.556 1.499l0.202 0.041c1.426 0.299 3.064 0.47 4.742 0.47 2.387 0 4.693-0.346 6.87-0.991l-0.171 0.043c8.47-2.633 13.859-8.793 15.846-17.879 0.256-1.291 0.402-2.775 0.402-4.293 0-0.315-0.006-0.629-0.019-0.942l0.001 0.045 1.263-1.001c1.062-0.879 1.969-1.894 2.71-3.028l0.032-0.051c-1.341 0.593-2.897 1.008-4.527 1.166l-0.062 0.005z"></path>
</symbol>
  </defs>
</svg>
